Patient4_TMGait_0pt2_03_right_19_EMG.mot
version=1
nRows=23
nColumns=33
inDegrees=no
endheader
time	1LAddLong	2LGlutMax	3LGlutMed	4LIliopsoas	5LSemiMemb	6LBicFemLong	7LRecFem	8LVastMed	9LVastLat	10LGasMed	11LTibAnt	12lTibPost	13LPeroneusLong	14LSol	15LExtDigLong	16LFlexDigLong	17RAddLong	18RGlutMax	19RGlutMed	20RIliopsoas	21RSemiMemb	22RBicFemLong	23RRecFem	24RVastMed	25RVastLat	26RGasMed	27RTibAnt	28RTibPost	29RPeroneusLong	30RSol	31RExtDigLong	32RFlexDigLong
41.582	0.007172	-0.062714	0.12405	0.020752	-0.02533	0.056152	-0.00351	0.002747	0.037994	0.075989	-0.00351	0.005341	0.039368	0.090485	-0.036469	0.040436	-0.050659	-0.081482	-0.3186	0.039063	0.00473	-0.16968	-0.006256	-0.24628	0.03006	-0.020752	-0.006866	-0.005646	-0.0354	-0.032654	0.00351	-0.012207
41.583	0.007172	-0.066986	0.10727	0.024261	-0.027771	0.043182	-0.004425	0.001373	0.035706	0.096436	-0.00473	0.005188	-0.005493	0.13611	-0.031586	0.034485	-0.046844	-0.15045	0.45548	-0.001068	0.043488	-0.22766	0.064392	-0.24704	0.031128	-0.003052	-0.015564	-0.007629	-0.007477	-0.074768	-0.000305	-0.011597
41.584	0.009766	-0.043182	0.1178	0.00824	-0.023804	0.072632	-0.016174	0.000763	0.050812	0.098114	0.011749	0.011292	0.023346	0.014191	-0.012512	-0.041656	0	-0.32379	0.27512	0.001831	-0.11231	-0.25909	0.1416	-0.17532	0.029602	0.009308	-0.00473	-0.008087	0.000916	-0.065155	0.003204	-0.017395
41.585	0.014343	-0.042267	0.12405	0.00351	-0.016479	0.088959	-0.056305	0.00473	0.077667	0.091858	-0.005341	-0.002441	0.030518	-0.17441	-0.010223	-0.041351	0.048218	-0.51178	-0.36621	0.014038	-0.22156	-0.26245	0.23987	-0.16434	0.009155	-0.013123	-0.017395	-0.003815	0.061798	-0.02121	0.004425	-0.010681
41.586	0.019989	-0.075226	0.13367	0.010681	-0.023499	0.036163	-0.033722	-0.000305	0.055542	0.086212	0.002289	0.005035	0.050659	-0.24872	0.00885	-0.046082	0.088043	-0.47791	-0.34714	-0.033569	0.2272	-0.28915	0.35065	-0.057983	-0.005646	-0.03891	-0.007629	-0.010529	0.068817	-0.03479	0.003815	-0.012207
41.587	0.012512	-0.080566	0.12054	0.012207	0.018005	-0.065308	-0.015259	0.014343	0.032196	0.057831	-0.005341	0.002747	0.062256	-0.099792	0.021667	-0.048828	0.09552	-0.40359	-0.3421	0.003662	0.34729	-0.20783	0.38986	-0.00412	-0.049591	-0.02121	0.000153	-0.006409	0.093994	-0.037231	0.002289	-0.010223
41.588	0.019226	-0.074615	0.12314	0.00824	0.0354	-0.1265	0.001678	0.000153	0.047455	0.042114	-0.008087	-0.002594	0.062256	0.013885	0.031281	-0.044403	0.032349	-0.4277	-0.45349	0.039825	0.20981	-0.055542	0.21851	-0.070953	-0.064392	0.015717	-0.001831	-0.005035	0.084381	0.00885	0.002289	-0.009918
41.589	0.014038	-0.089569	0.12573	0.0177	0.047607	-0.085449	-0.002747	0.005493	0.038757	0.081329	-0.010071	-0.000763	0.037079	0.043182	0.039368	-0.033722	0.021515	-0.57968	-0.42801	-0.005341	-0.072479	-0.045929	0.00885	-0.093079	0.060272	0.023346	-0.005646	-0.00946	0.040436	0.036926	0.003662	-0.006256
41.59	0.000763	-0.0914	0.13321	0.008392	-0.009003	-0.072937	0.01709	0.005188	0.031891	0.097809	0.014038	-0.003204	0.007629	0.074463	0.024109	-0.028992	-0.019684	-0.67932	-0.058746	-0.022278	-0.006256	-0.018921	-0.26871	-0.032196	0.25177	0.005798	-0.00824	-0.009155	0.020752	0.049133	0.00351	-0.000458
41.591	-0.007782	-0.10498	0.13077	0.00412	0.000458	-0.058746	0.007935	0.001526	0.039978	0.090332	-0.014343	0.00351	-0.005646	0.095367	0.023499	-0.029144	-0.043182	-0.69015	0.089874	-0.0383	-0.22553	-0.017548	-0.22995	0.034637	0.41046	0.004272	0.008698	-0.015564	0.007477	0.089417	0.005341	-0.007019
41.592	-0.005035	-0.11398	0.13672	-0.00061	0.019226	-0.035706	0.015106	0.000458	0.045624	0.080719	-0.005341	0.004578	-0.036011	0.13138	0.021667	-0.017242	-0.03952	-0.72586	-0.50583	-0.011597	0.026703	-0.06073	-0.19211	0.055084	0.38391	-0.00412	-0.012512	-0.061188	0.047607	-0.017548	0.001678	-0.00946
41.593	-0.000153	-0.11124	0.1413	0.008392	0.008698	-0.042419	-0.021057	-0.033417	0.04837	0.021515	0.003357	-0.001984	-0.056763	0.12207	0.014191	-0.011139	0.011139	-0.62958	-0.3067	-0.010071	0.22629	-0.040894	-0.057373	-0.056915	0.24307	-0.007782	-0.0177	-0.11841	-0.040741	-0.16739	0.000763	0.000305
41.594	-0.005035	-0.10178	0.13962	0.006409	0.031433	-0.032196	0.001373	-0.024872	0.053864	-0.13199	0.007782	0.006104	-0.053864	0.12344	0.015411	-0.008545	0.04364	-0.62149	0.33981	-0.048218	0.14099	-0.09613	0.051117	-0.14084	0.15381	-0.003662	-0.006104	0.002136	-0.042572	-0.22827	0.002594	-0.011292
41.595	0.00412	-0.10696	0.15198	0.020905	0.039368	-0.04715	-0.027924	-0.040894	0.048065	-0.14771	-0.002594	0.014496	-0.065918	0.12177	0.015869	0.001831	0.046539	-0.61874	0.4422	-0.0177	-0.17578	-0.033875	0.032654	-0.080414	0.1416	0.003052	-0.013123	0.068512	-0.027313	-0.52795	0.002747	-0.011444
41.596	0.004425	-0.11566	0.14008	0.01236	0.018005	-0.037994	-0.02533	-0.005646	0.048828	-0.10193	-0.003357	-0.000763	-0.087891	0.063934	0.016785	0.002747	0.059814	-0.66559	0.15274	0.036011	-0.32074	0.015869	0.018463	-0.052032	0.021667	0.000763	0.009766	-0.11475	0.01358	-0.13184	0.001221	-0.001068
41.597	0.004425	-0.095825	0.15411	0.023041	0.018158	-0.019379	-0.019226	-0.00351	0.040741	-0.075073	0.001068	0.024567	-0.070343	0.098572	0.020752	0.018158	0.090637	-0.63522	-0.10147	-0.02243	-0.28885	0.064697	0.044708	-0.038452	-0.22583	0.001068	-0.014496	0.07782	0.05249	0.39597	0.004883	-0.012665
41.598	-0.01297	-0.103	0.17273	0.014191	0.006866	-0.003357	-0.019836	-0.003967	0.03952	-0.059662	0.009766	0.014191	-0.052643	0.060883	0.009003	0.029755	0.077057	-0.71732	-0.49027	-0.018921	-0.50812	0.10437	0.072479	-0.014648	-0.32562	-0.007935	-0.014191	0.1091	-0.032959	0.17914	0.003052	-0.016632
41.599	0.005493	-0.084991	0.18951	-0.00824	0.016937	-0.022278	-0.014496	0.000153	0.033417	-0.04837	0.00412	0.018616	-0.010986	0.10193	0.006104	0.027313	0.037537	-0.69778	-0.79636	0.063019	-0.36713	0.20966	0.041504	-0.015564	0.23727	-0.004883	0.019379	0.047607	-0.023956	-0.18158	0.001068	-0.019531
41.6	0.001068	-0.085602	0.14511	-0.001221	0.005951	-0.003204	-0.00885	0.000458	0.040131	-0.019836	0.001831	0.010223	0.028076	0.12512	-0.010223	-0.008698	-0.014801	-0.74341	-0.55481	0.18799	0.11139	0.30487	0.023956	0.12711	0.48981	-0.003967	0.014343	-0.029449	0.017395	-0.26581	-0.002136	-0.017242
41.601	0.007477	-0.084534	0.12817	0.011597	0.00824	0.013733	-0.034637	0.002289	0.041046	0.037689	0.014191	0.006866	0.010071	0.19333	-0.004272	0.013428	-0.028229	-0.68314	0.02533	0.036469	0.44296	0.30411	-0.010071	0.096436	0.43716	-0.006256	0.025024	0.013275	0.034943	-0.094604	0.003052	-0.011292
41.602	0.001678	-0.059204	0.11353	-0.001526	0.015717	0.008392	-0.041504	-0.002899	0.047302	0.059509	0.012207	0.012665	0.061798	0.23346	0.003967	-0.048981	-0.042877	-0.63507	0.74783	-0.10056	0.022736	0.23941	-0.022583	0.12131	0.24643	-0.010834	0.014038	0.017853	0.21316	0.17532	0.00351	-0.014038
41.603	0.005951	-0.066833	0.11475	0.001373	0.007172	-0.000916	-0.037537	0.002899	0.045013	0.16357	0.014648	0.006714	0.004883	0.16403	-0.022736	0.22247	-0.046082	-0.66895	0.078735	-0.094452	-0.19852	0.068512	-0.06134	0.69122	0.37155	0.003052	0.003815	0.001984	0.30884	0.18066	0.000763	-0.012665
41.604	0.004578	-0.081329	0.14297	-0.000763	0.006561	-0.001831	-0.034943	-0.000916	0.041962	0.23682	0.001831	0.006409	-0.020142	0.069275	-0.021667	-0.9639	-0.079498	-0.70236	-0.15976	-0.007935	-0.035095	-0.09552	-0.15839	0.70572	0.34729	-0.008087	0.003357	-0.004578	0.057983	0.050507	-0.002136	-0.010986
